<svg id="Calque_1" data-name="Calque 1" xmlns="http://www.w3.org/2000/svg" viewBox="0 0 767 177.33"><defs><style>.cls-1{fill:#322d2a}</style></defs><path class="cls-1" d="M323.32 28.4h-84.46v18.95h32.71v75.83h19.04V47.35h32.71V28.4z"/><path class="cls-1" d="M778.14 113.44v56.97a20.66 20.66 0 1 1-41.32 0v-56.97h-19V170.46a39.62 39.62 0 0 0 79.24 0v-57zM315.52 113.46l-19 19H325v29.34a29.34 29.34 0 0 1-50.09 20.75l-13.4 13.4a48.3 48.3 0 0 0 82.45-34.15v-48.3z" transform="translate(-247.34 -85.04)"/><path d="M266 191.41l8.91-8.91A29.34 29.34 0 0 0 325 161.76v-29.34h-28.45l7.08-7.08 5.94-5.94 5.94-5.94h28.41V85l-28.41 28.42h-19.87a48.3 48.3 0 0 0-34.15 82.45l4.49-4.49z" transform="translate(-247.34 -85.04)" fill="#ffda1e"/><path class="cls-1" d="M976.42 113.44H939.3a9.51 9.51 0 0 0-9.42 9.45v85.34h19v-19h27.51a37.92 37.92 0 1 0 0-75.83zm0 56.87h-27.51v-37.92h27.51a19 19 0 0 1 0 37.92zM853.15 189.31v-75.87h-19v85.43a9.51 9.51 0 0 0 8.94 9.4h56.6v-19zM647.44 113.44h-37.12a9.51 9.51 0 0 0-9.42 9.45v85.34h19v-19h27.51a37.92 37.92 0 1 0 0-75.83zm0 56.87h-27.51v-37.92h27.51a19 19 0 1 1 0 37.92zM456 132.39v-19h-65.6a9.52 9.52 0 0 0-9.42 9.51v75.77a9.52 9.52 0 0 0 9.46 9.52l65.56.07v-19h-56v-18.91h37v-19h-37v-18.96zM735.29 234.2a4.06 4.06 0 0 1 3.9 2.92l10.64 24.2H744l-2.35-5.83h-13.1l-2.42 5.83h-5.83l10.64-24.2c.45-1.93 2.42-2.92 4.35-2.92zm0 6.82l-4.85 10.15h9.24zM757.52 234.28V256h13v5.3h-15.43a3.28 3.28 0 0 1-3.37-3.37v-23.65zM765.92 239.09v-4.81h22.23v4.81h-8.22v22.23h-5.79v-22.23zM797.92 234.2a4.06 4.06 0 0 1 3.9 2.92l10.64 24.2h-5.83l-2.35-5.83h-13.1l-2.42 5.83h-5.83l10.64-24.2c.43-1.93 2.43-2.92 4.35-2.92zm0 6.82l-4.85 10.15h9.24zM830.71 234.24h6l-11.06 25.6c-.53 1.51-2.54 2.54-4.54 2.54a4.54 4.54 0 0 1-4-2.54l-11.06-25.6h6l9 21.09zM838.47 234.28h5.79v27h-5.79zM861.19 234.2a4.06 4.06 0 0 1 3.9 2.92l10.64 24.2h-5.83l-2.35-5.83h-13.1l-2.45 5.82h-5.8l10.64-24.2c.45-1.92 2.42-2.91 4.35-2.91zm0 6.82l-4.85 10.15h9.24zM909 246.41a3.4 3.4 0 0 1 3.45 3.5v11.43h-4l-.5-3a10.35 10.35 0 0 1-7.91 3.46c-8.44 0-13.39-6-13.39-14.38 0-8 5-14.42 13.39-14.42 5.95 0 11.36 3.46 11.89 9.92H906c-.5-3.5-3-5-5.95-5-5.49 0-7.44 5-7.44 9.46 0 5 2 9.42 7.44 9.42 4 0 6.45-2 6.91-5.92h-6.41v-4.54zM930.11 261.18l-5.91-9.88h-4v9.88h-5.91v-24.23a3.38 3.38 0 0 1 3.45-3.5h9.36c6.95 0 9.9 4.46 9.9 8.92a8.25 8.25 0 0 1-6.41 8.35l6.91 10.46zm-9.86-14.85h5.49c2.92 0 5.37-.46 5.37-4s-2.46-4-5.37-4h-5.49zM938.13 247.52c0-8.42 5-14.42 13.39-14.42 8.9 0 13.85 6 13.85 14.42 0 7.92-5 14.38-13.85 14.38-8.44.01-13.39-6.45-13.39-14.38zm5.95 0c0 4.46 2 9.42 7.44 9.42s7.94-5 7.94-9.42c0-5-2.53-9.46-7.94-9.46s-7.44 4.5-7.44 9.46zM978.19 261.91c-7.37 0-11.82-3.46-11.82-10.88v-17.31h5.91V251c0 3 1 5.92 5.91 5.92 4 0 5.45-2 5.45-5.92v-17.28H990V251c0 7.45-4.4 10.91-11.81 10.91zM1004.67 233.68c6.87 0 9.32 4.42 9.32 8.85s-2.46 8.81-9.32 8.81h-6.37v9.85h-5.87V237.1a3.34 3.34 0 0 1 3.45-3.42zm-1.46 12.77c3 0 5.37-.5 5.37-3.92s-2.42-3.92-5.37-3.92h-4.91v7.85z" transform="translate(-247.34 -85.04)"/></svg>